PathFileType  4	(X/Y/Z) C:\PlaceHolderFilePath\
DataRate	CameraRate	NumFrames	NumMarkers	Units	OrigDataRate	OrigDataStartFrame	OrigNumFrames
  240.0		  240.0		   6		     47	     mm	  240.0	      597	   2384
Frame#	Time	R_acr			L_acr			back_T			back_mid			back_B			R_asis			L_asis			R_psis			L_psis			R_ilium			L_ilium			R_thigh_TA			R_thigh_TP			R_thigh_BA			R_thigh_BP			R_kneejoint_LA			R_tibtub			R_shank_TA			R_shank_TP			R_shank_BA			R_shank_BP			R_fibula			R_ankle_LA			R_heel_T			R_heel_LA			R_heel_B			R_latfoot			R_met_5			R_toe			L_thigh_TA			L_thigh_TP			L_thigh_BA			L_thigh_BP			L_kneejoint_LA			L_tibtub			L_shank_TA			L_shank_TP			L_shank_BA			L_shank_BP			L_fibula			L_ankle_LA			L_heel_T			L_heel_LA			L_heel_B			L_latfoot			L_met_5			L_toe			
		X1	Y1	Z1	X2	Y2	Z2	X3	Y3	Z3	X4	Y4	Z4	X5	Y5	Z5	X6	Y6	Z6	X7	Y7	Z7	X8	Y8	Z8	X9	Y9	Z9	X10	Y10	Z10	X11	Y11	Z11	X12	Y12	Z12	X13	Y13	Z13	X14	Y14	Z14	X15	Y15	Z15	X16	Y16	Z16	X17	Y17	Z17	X18	Y18	Z18	X19	Y19	Z19	X20	Y20	Z20	X21	Y21	Z21	X22	Y22	Z22	X23	Y23	Z23	X24	Y24	Z24	X25	Y25	Z25	X26	Y26	Z26	X27	Y27	Z27	X28	Y28	Z28	X29	Y29	Z29	X30	Y30	Z30	X31	Y31	Z31	X32	Y32	Z32	X33	Y33	Z33	X34	Y34	Z34	X35	Y35	Z35	X36	Y36	Z36	X37	Y37	Z37	X38	Y38	Z38	X39	Y39	Z39	X40	Y40	Z40	X41	Y41	Z41	X42	Y42	Z42	X43	Y43	Z43	X44	Y44	Z44	X45	Y45	Z45	X46	Y46	Z46	X47	Y47	Z47	

597	2.483330	816.365000	1559.688000	768.088000	929.552000	1563.156000	439.747000	748.872000	1311.091000	571.715000	766.589000	1243.610000	549.120000	758.519000	1213.545000	617.862000	969.404000	1063.698000	731.925000	987.016000	1038.745000	490.489000	768.490000	1086.580000	646.049000	779.415000	1080.341000	546.680000	769.294000	1053.358000	710.552000	788.235000	1039.313000	489.710000	1054.054000	757.499000	768.518000	986.776000	722.931000	764.233000	1091.466000	700.956000	747.724000	1020.194000	664.505000	747.238000	1097.966000	559.945000	717.156000	1148.984000	510.159000	660.659000	1103.589000	420.064000	708.587000	1030.642000	418.044000	716.597000	1088.710000	353.915000	695.990000	1029.137000	365.038000	705.616000	1026.106000	220.702000	655.623000	1009.928000	117.634000	633.510000	952.456000	98.087000	585.489000	957.890000	55.558000	621.030000	942.408000	48.329000	579.281000	1076.660000	71.471000	655.755000	1121.346000	42.082000	677.816000	1235.115000	79.681000	619.981000	949.761000	687.959000	445.211000	874.474000	687.045000	432.937000	946.362000	617.474000	448.782000	868.736000	615.066000	441.673000	860.491000	500.643000	450.416000	831.003000	431.108000	489.510000	731.390000	491.236000	440.447000	720.047000	557.629000	460.970000	665.746000	485.491000	451.445000	668.749000	549.021000	465.973000	519.715000	504.185000	481.164000	423.481000	505.806000	490.893000	430.822000	551.206000	541.739000	382.332000	554.165000	513.554000	385.501000	570.962000	552.417000	359.500000	462.699000	479.325000	314.168000	407.600000	458.753000	342.693000	283.074000	494.362000
598	2.487500	817.255000	1554.915000	769.988000	927.779000	1560.674000	439.416000	748.035000	1308.501000	571.882000	765.599000	1241.176000	548.646000	757.774000	1210.760000	617.223000	967.047000	1062.540000	732.448000	985.963000	1036.283000	491.568000	766.821000	1085.149000	644.804000	777.974000	1078.068000	545.277000	766.778000	1052.074000	709.410000	787.250000	1036.094000	489.147000	1050.707000	755.831000	768.917000	983.817000	720.557000	763.893000	1088.920000	699.783000	748.659000	1018.195000	662.360000	747.638000	1095.807000	558.069000	717.249000	1145.394000	507.945000	660.916000	1096.591000	418.060000	709.366000	1023.661000	418.598000	716.377000	1079.908000	352.465000	696.647000	1020.618000	365.534000	705.722000	1014.255000	221.107000	655.791000	995.462000	118.290000	633.253000	937.299000	99.192000	585.161000	942.120000	56.756000	620.972000	926.458000	49.459000	579.411000	1060.973000	71.302000	655.654000	1105.103000	41.764000	678.195000	1219.937000	77.573000	620.078000	956.499000	686.957000	445.559000	881.370000	684.571000	432.743000	954.591000	616.477000	448.998000	877.053000	612.530000	441.535000	871.603000	498.685000	450.122000	842.379000	429.001000	489.355000	742.925000	489.535000	440.291000	731.917000	556.114000	460.428000	677.216000	484.178000	451.209000	680.599000	547.815000	465.539000	531.451000	503.980000	480.872000	435.287000	506.477000	490.719000	442.171000	551.465000	541.957000	393.894000	554.544000	513.323000	396.622000	570.939000	552.437000	371.590000	463.253000	478.333000	326.563000	408.161000	457.052000	354.917000	283.526000	492.420000
599	2.491670	817.372000	1551.450000	771.123000	925.984000	1558.434000	439.246000	747.194000	1306.615000	572.049000	764.580000	1239.408000	548.341000	757.963000	1207.630000	617.047000	964.728000	1061.492000	733.279000	984.582000	1033.578000	493.558000	765.027000	1082.817000	644.262000	776.651000	1075.945000	544.140000	764.388000	1050.599000	708.378000	786.099000	1033.177000	488.616000	1046.743000	753.335000	769.916000	980.083000	717.824000	764.118000	1085.463000	697.562000	749.839000	1014.883000	659.817000	747.998000	1092.224000	555.635000	717.649000	1140.772000	504.643000	661.704000	1088.231000	416.126000	710.675000	1015.522000	418.321000	716.081000	1070.297000	350.604000	697.656000	1011.215000	365.383000	705.822000	1001.813000	220.939000	656.232000	980.759000	118.537000	633.512000	921.719000	99.684000	585.438000	925.980000	57.651000	621.352000	910.258000	50.234000	579.657000	1045.049000	70.997000	655.910000	1088.799000	41.220000	678.639000	1204.339000	75.538000	620.272000	963.491000	686.336000	446.018000	888.530000	682.393000	432.746000	962.954000	615.787000	449.255000	885.507000	610.253000	441.322000	882.997000	496.795000	450.005000	854.155000	427.114000	489.392000	754.714000	487.875000	440.162000	743.986000	554.595000	459.990000	689.043000	482.820000	451.144000	692.573000	546.469000	465.149000	543.492000	503.299000	480.581000	447.461000	506.377000	490.482000	453.555000	551.384000	542.004000	405.682000	554.220000	512.773000	407.949000	570.522000	552.023000	384.116000	462.963000	477.391000	339.629000	407.639000	455.440000	367.927000	283.100000	490.777000
600	2.495830	817.532000	1548.323000	772.282000	924.137000	1556.249000	439.255000	746.319000	1305.463000	572.071000	763.373000	1238.358000	547.797000	755.877000	1207.014000	615.895000	962.453000	1060.283000	734.172000	983.426000	1031.451000	493.603000	763.451000	1081.977000	642.819000	775.228000	1073.941000	543.228000	762.230000	1049.010000	707.523000	784.815000	1030.621000	488.189000	1042.529000	750.237000	770.976000	975.772000	715.013000	764.566000	1081.083000	694.234000	750.958000	1010.235000	657.046000	748.012000	1087.093000	552.630000	718.218000	1135.109000	500.366000	663.031000	1079.925000	413.068000	711.415000	1006.833000	417.556000	715.930000	1060.073000	348.330000	698.490000	1001.191000	364.772000	705.416000	988.954000	220.444000	656.478000	965.451000	118.722000	633.829000	905.444000	99.969000	585.835000	909.831000	57.889000	621.461000	893.779000	50.702000	580.081000	1028.733000	70.691000	656.251000	1072.388000	40.795000	679.103000	1188.244000	74.428000	620.703000	970.578000	686.005000	446.584000	895.840000	680.537000	432.644000	971.449000	615.403000	449.582000	894.236000	608.409000	441.026000	894.624000	495.113000	449.984000	866.112000	425.534000	489.637000	766.783000	486.343000	440.084000	756.108000	553.197000	459.648000	701.050000	481.388000	451.123000	704.772000	545.197000	464.977000	555.785000	502.272000	480.295000	459.820000	505.733000	490.111000	464.974000	550.634000	541.797000	417.470000	553.282000	511.944000	419.023000	569.637000	551.041000	396.952000	461.871000	476.142000	353.167000	406.280000	453.682000	381.715000	281.720000	489.634000
601	2.500000	817.694000	1545.318000	773.225000	922.373000	1554.324000	439.244000	745.478000	1304.918000	571.876000	761.965000	1237.897000	547.227000	753.968000	1206.079000	615.142000	960.196000	1059.141000	734.944000	982.014000	1029.104000	495.170000	761.789000	1080.479000	642.138000	773.528000	1072.078000	542.633000	760.168000	1047.221000	707.031000	783.426000	1028.435000	487.872000	1038.075000	746.857000	771.546000	971.069000	712.521000	764.535000	1076.134000	690.517000	751.701000	1004.856000	654.384000	747.943000	1080.674000	549.243000	718.877000	1128.570000	495.680000	664.957000	1070.663000	409.864000	712.262000	997.803000	416.445000	716.096000	1049.118000	345.659000	699.144000	990.611000	363.804000	705.169000	975.716000	219.531000	656.859000	949.586000	118.791000	633.927000	889.241000	100.181000	586.127000	892.997000	58.105000	622.240000	877.172000	51.021000	580.389000	1012.109000	70.254000	656.585000	1055.723000	40.404000	679.516000	1171.954000	73.507000	621.050000	977.721000	686.005000	447.153000	903.352000	678.822000	432.671000	980.270000	615.394000	450.035000	903.086000	606.610000	440.855000	906.338000	493.663000	450.169000	878.493000	424.306000	490.047000	779.036000	484.801000	440.166000	768.315000	551.641000	459.480000	713.330000	479.954000	451.110000	717.023000	543.842000	464.707000	568.174000	500.811000	480.014000	472.383000	504.480000	489.756000	476.415000	549.409000	541.500000	429.362000	551.646000	510.868000	430.156000	568.110000	549.869000	410.189000	460.008000	475.053000	367.120000	404.091000	451.862000	396.136000	279.741000	488.440000
602	2.504170	817.845000	1542.659000	773.965000	920.573000	1552.480000	439.178000	744.524000	1304.700000	571.786000	760.300000	1237.580000	546.819000	751.927000	1205.603000	614.508000	957.983000	1058.122000	735.644000	980.288000	1027.245000	494.245000	760.157000	1079.077000	641.894000	771.661000	1070.461000	542.299000	758.386000	1045.972000	706.327000	781.843000	1026.608000	487.764000	1033.704000	743.785000	771.400000	966.196000	710.791000	763.933000	1070.983000	686.651000	752.211000	999.017000	651.841000	747.741000	1073.300000	545.639000	719.477000	1121.059000	490.660000	666.891000	1061.037000	406.330000	712.665000	988.284000	414.621000	716.835000	1037.888000	342.746000	699.431000	979.875000	362.311000	705.758000	962.131000	218.426000	657.157000	933.322000	118.779000	633.821000	872.676000	100.411000	586.213000	876.235000	58.372000	622.452000	860.457000	51.106000	580.713000	995.498000	69.837000	656.701000	1038.953000	40.099000	679.668000	1155.363000	72.711000	620.999000	984.841000	686.003000	447.721000	910.698000	677.200000	432.387000	988.886000	615.562000	450.698000	912.081000	605.015000	440.862000	918.200000	492.608000	450.429000	891.104000	423.218000	490.702000	791.455000	483.293000	440.273000	780.679000	550.127000	459.455000	725.716000	478.346000	451.254000	729.368000	542.201000	464.675000	580.720000	499.209000	479.511000	485.204000	502.427000	489.739000	487.784000	547.846000	540.895000	441.233000	549.480000	509.483000	441.232000	566.116000	548.398000	423.654000	457.509000	473.589000	381.566000	400.933000	450.104000	411.121000	276.957000	487.806000
